<svg xmlns="http://www.w3.org/2000/svg" viewBox="135 190 305 305">
  <g transform="translate(191.52159, 204.3) scale(0.34185022, 0.4)">
    <path d="M537.37,171H194.88C186.83,171 179.33,166.97 174.88,160.27L93.24,37.27C82.65,21.32 94.09,0 113.24,0H456.09C464.15,0 471.67,4.04 476.12,10.77L557.4,133.77C567.94,149.72 556.5,171 537.37,171Z" fill="#1CFB3E"/>
    <path d="M0,278V654C0,668.91 12.09,681 27,681H529.67C551.21,681 564.08,657.01 552.17,639.07L472.51,519.07C467.51,511.53 459.06,507 450.02,507H204C189.09,507 177,494.91 177,480V454C177,439.09 189.09,427 204,427H360.63C382.18,427 395.04,403 383.11,385.05L302.01,263.05C297.01,255.52 288.57,251 279.53,251H27C12.09,251 0,263.09 0,278Z" fill="#FFFFFF"/>
  </g>
</svg>
